<svg width="350" height="150" viewBox="0 0 350 150" fill="none" xmlns="http://www.w3.org/2000/svg">
<path d="M300.766 45.9688L294.754 81.2227C293.888 87.3333 291.365 92.1452 287.184 95.6582C283.027 99.1712 277.783 100.878 271.449 100.779C267.516 100.705 264.102 99.8639 261.207 98.2559C258.312 96.623 256.173 94.3346 254.787 91.3906C253.426 88.4219 252.969 85.0449 253.414 81.2598L259.426 45.9688H272.191L266.217 81.2969C266.068 82.5339 266.044 83.709 266.143 84.8223C266.266 86.653 266.835 88.0755 267.85 89.0898C268.889 90.1042 270.348 90.6484 272.229 90.7227C277.671 90.8958 280.949 87.7415 282.062 81.2598L288.074 45.9688H300.766ZM312.975 100H300.283L309.672 45.9688H322.326L312.975 100Z" fill="#2C1E1C"/>
<path d="M239.517 66.2924H172.482L169.235 78.5128H236.319L245 73.0924L239.517 66.2924ZM215.676 87.7471H166.722L163.442 99.9838H202.018L216.917 90.6683C216.982 90.6197 218.043 89.9218 217.847 89.0454C217.602 87.9743 216.345 87.7796 215.676 87.7471ZM230.95 56.766C231.26 56.3441 230.999 55.8247 230.754 55.5488L222.253 45.0162H178.177L174.881 57.2529H229.808C230.183 57.2529 230.64 57.2042 230.95 56.766ZM42.4437 86.7409C41.9704 86.0593 41.8562 85.1992 42.0847 84.3228L48.3834 60.8882C48.6282 59.9631 49.232 59.0381 50.1458 58.3078C51.0596 57.5937 52.0713 57.2366 53.0015 57.2366H97.9415L101.221 45H54.9433C50.8964 45 46.409 46.5418 42.5089 49.6415C38.56 52.7412 35.9164 56.8147 34.8394 60.8395L28.557 84.3228C27.48 88.3314 27.9369 92.3399 30.1725 95.4072C32.3917 98.4582 35.9817 99.9838 39.9959 99.9838H86.4698L89.7661 87.7309H44.5976C43.7165 87.7309 42.9332 87.4063 42.4437 86.7409ZM164.405 81.2393C165.335 76.9711 164.666 73.4819 162.251 70.6093C159.738 67.6232 155.43 66.3573 150.274 66.3573L118.16 66.3411C114.439 66.3411 114.798 64.0366 115.206 62.4137L115.842 60.2715C116.74 57.967 117.523 57.2691 120.118 57.2691H168.077L171.356 45H121.766C121.195 45 118.176 45.0649 114.716 46.2496C109.38 48.0997 105.268 51.7999 103.767 56.6849L101.254 66.3411C100.601 69.1974 101.727 72.8489 103.049 74.3744C104.403 76.4355 107.292 78.5777 112.416 78.5777H148.74C151.008 78.5777 152.215 78.9348 151.497 81.8235L150.486 84.9882C149.653 86.887 148.74 87.7309 146.814 87.7309H96.7829L93.5356 100H143.077C160.603 100 162.218 89.3376 163.361 85.9782L164.405 81.2393Z" fill="#F47920"/>
</svg>
